<svg aria-hidden="true" style="width:0;height:0;position:absolute;overflow:hidden" xmlns="http://www.w3.org/2000/svg"><defs><symbol id="icon-burger" viewBox="0 0 50 32"><path fill="#fff" style="fill:var(--color1,#fff)" d="M.558 4.218c-.77.46-.734 1.752.053 2.168.239.115 2.716.133 23.739.133 23.128 0 23.474 0 23.757-.177.752-.451.752-1.672 0-2.123-.283-.177-.628-.177-23.774-.177s-23.491 0-23.774.177zM.558 16.605c-.77.46-.734 1.752.053 2.168.239.115 1.451.133 10.688.133 10.042 0 10.432-.009 10.697-.168.734-.442.734-1.699 0-2.141-.265-.159-.655-.168-10.715-.168-10.202 0-10.449.009-10.724.177zM.752 28.762c-.478.212-.69.531-.726 1.097-.044.61.168 1.026.637 1.221s33.463.186 33.843-.009c.903-.46.867-1.814-.044-2.256-.363-.177-.602-.177-16.908-.177-13.582.009-16.581.027-16.802.124z"/></symbol><symbol id="icon-closeModal" viewBox="0 0 32 32"><path fill="none" stroke-linejoin="round" stroke-linecap="round" stroke-width="2.59" d="M23.921 7.899 8.382 23.438M8.382 7.899l15.539 15.539"/></symbol><symbol id="icon-map-pin" viewBox="0 0 32 32"><path stroke-linejoin="round" stroke-linecap="round" stroke-width="2" d="M28 13.334c0 9.333-12 17.333-12 17.333s-12-8-12-17.333a12.003 12.003 0 0 1 12-12 12.003 12.003 0 0 1 12 12z"/><path stroke-linejoin="round" stroke-linecap="round" stroke-width="2" d="M16 17.334a4 4 0 1 0 0-8 4 4 0 0 0 0 8z"/></symbol><symbol id="icon-toLeftArrow" viewBox="0 0 17 32"><path fill="#9d9d9d" style="fill:var(--color2,#9d9d9d)" d="M14.823 32 0 16 14.823 0l2.631 2.84L5.262 16l12.192 13.16L14.823 32z"/></symbol><symbol id="icon-toRightArrow" viewBox="0 0 17 32"><path fill="#9d9d9d" style="fill:var(--color2,#9d9d9d)" d="m2.631 0 14.823 16L2.631 32 0 29.16 12.192 16 0 2.84 2.631 0z"/></symbol><symbol id="icon-circle-up" viewBox="0 0 32 32"><path d="M0 16c0 8.837 7.163 16 16 16s16-7.163 16-16S24.837 0 16 0 0 7.163 0 16zm29 0c0 7.18-5.82 13-13 13S3 23.18 3 16 8.82 3 16 3s13 5.82 13 13z"/><path d="m22.086 20.914 2.829-2.829-8.914-8.914-8.914 8.914 2.828 2.828 6.086-6.086z"/></symbol></defs></svg>